<svg xmlns="http://www.w3.org/2000/svg" viewBox="0 0 512 512"><rect width="512" height="512" rx="96" fill="#E9E4DB"/><g transform="translate(51,41) scale(0.82)"><g>
    <!-- legs -->
    <path d="M232 392 L222 448 L186 462" fill="none" stroke="#101010" stroke-width="17" stroke-linecap="round" stroke-linejoin="round"/>
    <path d="M300 396 L306 452 L342 460" fill="none" stroke="#101010" stroke-width="17" stroke-linecap="round" stroke-linejoin="round"/>
    <!-- body + head -->
    <path d="M118 262
             C 126 240, 146 230, 136 200
             C 150 214, 160 212, 152 186
             C 172 206, 200 202, 224 180
             C 248 156, 284 128, 324 130
             C 366 132, 398 162, 402 200
             C 404 222, 394 240, 378 252
             C 390 294, 380 340, 344 372
             C 308 404, 240 414, 192 392
             C 138 366, 108 310, 118 262 Z"
          fill="#101010"/>
    <!-- beak: rounded gold wedge, slightly open -->
    <path d="M394 178
             C 424 164, 460 168, 478 188
             C 483 194, 481 201, 472 205
             C 446 216, 412 214, 394 205
             C 388 195, 388 186, 394 178 Z"
          fill="#CFA43A"/>
    <path d="M400 201 C 424 209, 452 207, 468 199" fill="none" stroke="#101010" stroke-width="6" stroke-linecap="round"/>
    <circle cx="430" cy="183" r="5" fill="#101010"/>
    <!-- eye: white with side pupil, flat annoyed lid -->
    <ellipse cx="352" cy="180" rx="25" ry="21" fill="#F4F1EA"/>
    <circle cx="365" cy="184" r="9" fill="#101010"/>
    <path d="M326 166 L 380 160" stroke="#101010" stroke-width="11" stroke-linecap="round"/>
    <!-- beret: rounded gold cap, tilted back, with top nub -->
    <path d="M264 138
             C 250 100, 298 68, 348 70
             C 394 72, 424 96, 420 121
             C 417 137, 397 145, 372 147
             C 328 153, 286 156, 264 138 Z"
          fill="#CFA43A"/>
    <path d="M334 68 C 327 50, 345 41, 357 50 C 367 58, 358 72, 345 70"
          fill="#CFA43A"/>
    <!-- wing swoosh -->
    <path d="M180 306
             C 216 346, 280 358, 330 336
             C 298 378, 224 380, 184 340
             C 174 330, 172 316, 180 306 Z"
          fill="#CFA43A"/>
  </g>
</g></svg>